<svg xmlns="http://www.w3.org/2000/svg" opacity="0.7" viewBox="0 0 24 24">
  <path d="M 12 2 C 6.486 2 2 6.486 2 12 C 2 17.514 6.486 22 12 22 C 17.514 22 22 17.514 22 12 C 22 6.486 17.514 2 12 2 z M 12 4 C 16.411 4 20 7.589 20 12 C 20 16.411 16.411 20 12 20 C 7.589 20 4 16.411 4 12 C 4 7.589 7.589 4 12 4 z M 13 7 L 14.28125 8.28125 L 12.5 10.0625 C 12.335 10.0195 12.178 10 12 10 C 10.895 10 10 10.895 10 12 C 10 12.178 10.0195 12.335 10.0625 12.5 L 8.6875 13.90625 C 7.7915 13.55525 6.723 13.74575 6 14.46875 L 7.40625 15.875 C 7.60125 15.68 7.93 15.68 8.125 15.875 C 8.32 16.07 8.32 16.39875 8.125 16.59375 L 9.53125 18 C 10.25425 17.277 10.44375 16.2095 10.09375 15.3125 L 11.5 13.9375 C 11.664 13.9815 11.822 14 12 14 C 13.105 14 14 13.105 14 12 C 14 11.822 13.9805 11.665 13.9375 11.5 L 15.71875 9.71875 L 17 11 L 17 7 L 13 7 z"/>
</svg>